<svg width="49" height="48" viewBox="0 0 49 48" fill="none" xmlns="http://www.w3.org/2000/svg">
<path d="M23.1415 11.3781C23.1415 17.662 17.9611 22.7562 11.5707 22.7562C5.1804 22.7562 0 17.662 0 11.3781C0 5.09415 5.1804 0 11.5707 0C17.9611 0 23.1415 5.09415 23.1415 11.3781Z" fill="#71717A"/>
<path d="M48.362 11.3781C48.362 17.662 43.1816 22.7562 36.7913 22.7562C30.4009 22.7562 25.2205 17.662 25.2205 11.3781C25.2205 5.09415 30.4009 0 36.7913 0C43.1816 0 48.362 5.09415 48.362 11.3781Z" fill="#EDA579"/>
<path d="M23.1415 36.1786C23.1415 42.4626 17.9611 47.5567 11.5707 47.5567C5.1804 47.5567 0 42.4626 0 36.1786C0 29.8947 5.1804 24.8005 11.5707 24.8005C17.9611 24.8005 23.1415 29.8947 23.1415 36.1786Z" fill="#EDA579"/>
<path d="M48.362 36.1786C48.362 42.4626 43.1816 47.5567 36.7913 47.5567C30.4009 47.5567 25.2205 42.4626 25.2205 36.1786C25.2205 29.8947 30.4009 24.8005 36.7913 24.8005C43.1816 24.8005 48.362 29.8947 48.362 36.1786Z" fill="#EDA579"/>
</svg>
