<svg width="287" height="56" viewBox="0 0 287 56" fill="none" xmlns="http://www.w3.org/2000/svg">
<path d="M23.1415 11.3781C23.1415 17.662 17.9611 22.7562 11.5707 22.7562C5.1804 22.7562 0 17.662 0 11.3781C0 5.09415 5.1804 0 11.5707 0C17.9611 0 23.1415 5.09415 23.1415 11.3781Z" fill="#71717A"/>
<path d="M48.362 11.3781C48.362 17.662 43.1816 22.7562 36.7913 22.7562C30.4009 22.7562 25.2205 17.662 25.2205 11.3781C25.2205 5.09415 30.4009 0 36.7913 0C43.1816 0 48.362 5.09415 48.362 11.3781Z" fill="#EDA579"/>
<path d="M23.1415 36.1786C23.1415 42.4626 17.9611 47.5567 11.5707 47.5567C5.1804 47.5567 0 42.4626 0 36.1786C0 29.8947 5.1804 24.8005 11.5707 24.8005C17.9611 24.8005 23.1415 29.8947 23.1415 36.1786Z" fill="#EDA579"/>
<path d="M48.362 36.1786C48.362 42.4626 43.1816 47.5567 36.7913 47.5567C30.4009 47.5567 25.2205 42.4626 25.2205 36.1786C25.2205 29.8947 30.4009 24.8005 36.7913 24.8005C43.1816 24.8005 48.362 29.8947 48.362 36.1786Z" fill="#EDA579"/>
<path d="M259.017 56V50.3934H263.277C264.456 50.3934 265.33 50.2216 265.898 49.8779C266.466 49.5342 266.903 48.9542 267.209 48.1379L268.323 45.3024H266.16L253.577 12.0497H260.917L270.485 38.987L279.595 12.0497H287L273.107 50.329C272.408 52.3053 271.359 53.7445 269.961 54.6467C268.607 55.5489 266.706 56 264.26 56H259.017Z" fill="#F5F2EF"/>
<path d="M222.502 46.3335V40.2114L243.539 17.6562H223.158V12.0497H251.534V18.1718L230.301 40.7269H252.058V46.3335H222.502Z" fill="#F5F2EF"/>
<path d="M203.513 47.1068C200.106 47.1068 197.156 46.3765 194.666 44.9158C192.22 43.455 190.319 41.3714 188.965 38.6648C187.654 35.9581 186.999 32.8004 186.999 29.1916C186.999 25.5828 187.654 22.4465 188.965 19.7829C190.319 17.0763 192.22 14.9926 194.666 13.5319C197.113 12.0282 199.996 11.2764 203.317 11.2764C206.462 11.2764 209.237 12.0067 211.64 13.4674C214.043 14.8852 215.899 16.9474 217.21 19.654C218.564 22.3606 219.242 25.6257 219.242 29.4494V31.1893H194.207C194.382 34.5404 195.278 37.0537 196.894 38.7292C198.555 40.4047 200.783 41.2425 203.579 41.2425C205.632 41.2425 207.336 40.7699 208.691 39.8247C210.045 38.8796 210.984 37.6122 211.509 36.0226L218.717 36.4737C217.8 39.6529 215.987 42.2306 213.278 44.2069C210.613 46.1402 207.358 47.1068 203.513 47.1068ZM194.207 26.0339H211.902C211.683 22.9836 210.788 20.728 209.215 19.2673C207.686 17.8066 205.72 17.0763 203.317 17.0763C200.826 17.0763 198.773 17.8496 197.156 19.3962C195.584 20.8999 194.601 23.1125 194.207 26.0339Z" fill="#F5F2EF"/>
<path d="M154.576 46.3335V0.578796H161.523V28.9983L177.186 12.0497H185.967L172.336 26.485L186.492 46.3335H178.497L167.683 30.7383L161.523 37.1826V46.3335H154.576Z" fill="#F5F2EF"/>
<path d="M129.436 47.1068C125.81 47.1068 122.905 46.2906 120.72 44.658C118.579 43.0254 117.509 40.7269 117.509 37.7626C117.509 34.7982 118.405 32.4997 120.196 30.8671C122.031 29.1916 124.849 27.9887 128.65 27.2583L140.643 25.0028C140.643 22.3391 140.009 20.3629 138.742 19.074C137.475 17.7422 135.597 17.0763 133.106 17.0763C130.878 17.0763 129.131 17.5703 127.864 18.5585C126.597 19.5036 125.723 20.9214 125.242 22.8117L118.099 22.3606C118.754 18.9236 120.371 16.217 122.948 14.2408C125.57 12.2645 128.956 11.2764 133.106 11.2764C137.825 11.2764 141.407 12.5223 143.854 15.0141C146.344 17.4629 147.589 20.9214 147.589 25.3894V38.7292C147.589 39.5455 147.72 40.1255 147.983 40.4692C148.288 40.7699 148.769 40.9203 149.424 40.9203H150.67V46.3335C150.451 46.3765 150.102 46.4194 149.621 46.4624C149.14 46.5054 148.638 46.5268 148.114 46.5268C146.628 46.5268 145.339 46.2906 144.247 45.818C143.199 45.3454 142.412 44.5721 141.888 43.498C141.364 42.381 141.101 40.8988 141.101 39.0514L141.822 39.3736C141.473 40.8773 140.708 42.2091 139.529 43.3691C138.393 44.5291 136.929 45.4528 135.138 46.1402C133.39 46.7846 131.49 47.1068 129.436 47.1068ZM130.55 41.6936C132.648 41.6936 134.439 41.3069 135.924 40.5336C137.41 39.7173 138.567 38.6003 139.398 37.1826C140.228 35.7648 140.643 34.1537 140.643 32.3493V30.1582L130.419 32.0915C128.322 32.4782 126.837 33.1012 125.963 33.9604C125.133 34.7767 124.718 35.8293 124.718 37.1181C124.718 38.5788 125.22 39.7173 126.225 40.5336C127.274 41.3069 128.715 41.6936 130.55 41.6936Z" fill="#F5F2EF"/>
<path d="M64.3683 46.3335V0.578735H74.0674L87.8952 38.1492L101.723 0.578735H111.422V46.3335H104.344V12.823L91.8272 46.269H83.9631L71.446 12.823V46.3335H64.3683Z" fill="#F5F2EF"/>
</svg>
